<svg id="upload_black_24dp" xmlns="http://www.w3.org/2000/svg" width="64" height="64" viewBox="0 0 64 64">
  <path id="Path_11009" data-name="Path 11009" d="M0,0H64V64H0Z" fill="none"/>
  <path id="Path_11010" data-name="Path 11010" d="M18.333,36.988H29a2.675,2.675,0,0,0,2.667-2.667V20.988h4.24a2.675,2.675,0,0,0,1.893-4.56L25.56,4.188a2.656,2.656,0,0,0-3.76,0L9.56,16.427a2.667,2.667,0,0,0,1.867,4.56h4.24V34.321A2.675,2.675,0,0,0,18.333,36.988ZM7.667,42.321h32a2.667,2.667,0,1,1,0,5.333h-32a2.667,2.667,0,0,1,0-5.333Z" transform="translate(8.333 5.679)" fill="#aeb7c2"/>
</svg>
