<svg xmlns="http://www.w3.org/2000/svg" xmlns:xlink="http://www.w3.org/1999/xlink" width="77" height="77" viewBox="0 0 77 77">
  <defs>
    <filter id="Ellipse_896" x="0" y="0" width="77" height="77" filterUnits="userSpaceOnUse">
      <feOffset dy="4" input="SourceAlpha"/>
      <feGaussianBlur stdDeviation="5" result="blur"/>
      <feFlood flood-color="#222831" flood-opacity="0.4"/>
      <feComposite operator="in" in2="blur"/>
      <feComposite in="SourceGraphic"/>
    </filter>
  </defs>
  <g id="Group_43618" data-name="Group 43618" transform="translate(-1104 -171)">
    <g transform="matrix(1, 0, 0, 1, 1104, 171)" filter="url(#Ellipse_896)">
      <g id="Ellipse_896-2" data-name="Ellipse 896" transform="translate(15 11)" fill="#222831" stroke="rgba(255,255,255,0.3)" stroke-width="1">
        <circle cx="23.5" cy="23.5" r="23.5" stroke="none"/>
        <circle cx="23.5" cy="23.5" r="23" fill="none"/>
      </g>
    </g>
    <g id="icon_arrow" transform="translate(1131 194)">
      <path id="Path_970" data-name="Path 970" d="M0,0H24V24H0Z" fill="none"/>
      <path id="Path_971" data-name="Path 971" d="M9.31,6.71a1,1,0,0,0,0,1.41L13.19,12,9.31,15.88a1,1,0,0,0,1.41,1.41l4.59-4.59a1,1,0,0,0,0-1.41L10.72,6.7A1,1,0,0,0,9.31,6.71Z" fill="#fff"/>
    </g>
  </g>
</svg>
