<svg xmlns="http://www.w3.org/2000/svg" width="12.752" height="2.096" viewBox="0 0 12.752 2.096">
  <path id="Path_11107" data-name="Path 11107" d="M.016-7.12A1.052,1.052,0,0,0-1.04-6.08,1.045,1.045,0,0,0,.016-5.024,1.052,1.052,0,0,0,1.056-6.08,1.059,1.059,0,0,0,.016-7.12Zm-5.328,0A1.052,1.052,0,0,0-6.368-6.08,1.045,1.045,0,0,0-5.312-5.024,1.052,1.052,0,0,0-4.272-6.08,1.059,1.059,0,0,0-5.312-7.12Zm10.656,0A1.062,1.062,0,0,0,4.288-6.08,1.055,1.055,0,0,0,5.344-5.024,1.052,1.052,0,0,0,6.384-6.08,1.059,1.059,0,0,0,5.344-7.12Z" transform="translate(6.368 7.12)" fill="#6437cb"/>
</svg>
