<svg xmlns="http://www.w3.org/2000/svg" xmlns:xlink="http://www.w3.org/1999/xlink" width="43.958" height="42.489" viewBox="0 0 43.958 42.489">
  <defs>
    <filter id="Path_11007" x="0" y="0" width="43.958" height="42.489" filterUnits="userSpaceOnUse">
      <feOffset input="SourceAlpha"/>
      <feGaussianBlur stdDeviation="2" result="blur"/>
      <feFlood flood-opacity="0.4"/>
      <feComposite operator="in" in2="blur"/>
      <feComposite in="SourceGraphic"/>
    </filter>
  </defs>
  <g id="Group_43504" data-name="Group 43504" transform="translate(-1122.025 -58.122)" opacity="0.7">
    <g id="grade_black_24dp" transform="translate(1124 59.984)">
      <path id="Path_11006" data-name="Path 11006" d="M0,0H40V40H0Z" fill="none"/>
      <g transform="matrix(1, 0, 0, 1, -1.97, -1.86)" filter="url(#Path_11007)">
        <path id="Path_11007-2" data-name="Path 11007" d="M18.185,26.928l8.617,5.2a.836.836,0,0,0,1.25-.9l-2.283-9.8,7.6-6.583a.838.838,0,0,0-.483-1.467l-10.017-.85L18.951,3.295a.83.83,0,0,0-1.533,0L13.5,12.528l-10.017.85a.834.834,0,0,0-.467,1.467l7.6,6.583-2.283,9.8a.836.836,0,0,0,1.25.9Z" transform="translate(3.79 3.72)" fill="#717a89" stroke="#f4f5f7" stroke-width="1"/>
      </g>
    </g>
  </g>
</svg>
