<svg xmlns="http://www.w3.org/2000/svg" width="24" height="24" viewBox="0 0 24 24">
  <g id="アイコン" transform="translate(24 24) rotate(180)">
    <g id="Group_41241" data-name="Group 41241" transform="translate(-1970 -98)">
      <path id="Path_10467" data-name="Path 10467" d="M0,0H24V24H0Z" transform="translate(1970 98)" fill="none"/>
      <path id="Path_10468" data-name="Path 10468" d="M19,11H7.83l4.88-4.88a1.008,1.008,0,0,0,0-1.42,1,1,0,0,0-1.41,0L4.71,11.29a1,1,0,0,0,0,1.41l6.59,6.59a1,1,0,0,0,1.41-1.41L7.83,13H19a1,1,0,0,0,0-2Z" transform="translate(1970 98)" fill="#6437cb"/>
    </g>
  </g>
</svg>
