<svg id="icon_lock" xmlns="http://www.w3.org/2000/svg" width="24" height="24" viewBox="0 0 24 24">
  <g id="cancel_black_24dp">
    <circle id="Ellipse_897" data-name="Ellipse 897" cx="10" cy="10" r="10" transform="translate(2 2)" fill="#717a89"/>
    <path id="Path_11037" data-name="Path 11037" d="M0,0H24V24H0Z" fill="none" opacity="0.87"/>
    <path id="Path_11038" data-name="Path 11038" d="M12,2A10,10,0,1,0,22,12,9.991,9.991,0,0,0,12,2Zm4.3,14.3a1,1,0,0,1-1.41,0L12,13.41,9.11,16.3A1,1,0,1,1,7.7,14.89L10.59,12,7.7,9.11A1,1,0,0,1,9.11,7.7L12,10.59,14.89,7.7A1,1,0,0,1,16.3,9.11L13.41,12l2.89,2.89a1.014,1.014,0,0,1,0,1.41Z" fill="#f4f5f7"/>
    <g id="Ellipse_898" data-name="Ellipse 898" transform="translate(2 2)" fill="none" stroke="#aeb7c2" stroke-width="1">
      <circle cx="10" cy="10" r="10" stroke="none"/>
      <circle cx="10" cy="10" r="9.5" fill="none"/>
    </g>
  </g>
</svg>
