<svg xmlns="http://www.w3.org/2000/svg" width="192" height="192" viewBox="0 0 192 192">
  <g id="Group_43823" data-name="Group 43823" transform="translate(15939.705 20163)" style="isolation: isolate">
    <g id="Group_43828" data-name="Group 43828" transform="translate(-10563.782 174)">
      <circle id="Ellipse_906" data-name="Ellipse 906" cx="9" cy="9" r="9" transform="translate(-5201.923 -20163)" fill="#f4f5f7" style="mix-blend-mode: multiply;isolation: isolate"/>
      <circle id="Ellipse_905" data-name="Ellipse 905" cx="9" cy="9" r="9" transform="translate(-5259.923 -20163)" fill="#f4f5f7" style="mix-blend-mode: multiply;isolation: isolate"/>
      <circle id="Ellipse_904" data-name="Ellipse 904" cx="9" cy="9" r="9" transform="translate(-5317.923 -20163)" fill="#f4f5f7" style="mix-blend-mode: multiply;isolation: isolate"/>
      <circle id="Ellipse_903" data-name="Ellipse 903" cx="9" cy="9" r="9" transform="translate(-5375.923 -20163)" fill="#f4f5f7" style="mix-blend-mode: multiply;isolation: isolate"/>
    </g>
    <g id="Group_43827" data-name="Group 43827" transform="translate(-10563.782 116)">
      <circle id="Ellipse_906-2" data-name="Ellipse 906" cx="9" cy="9" r="9" transform="translate(-5201.923 -20163)" fill="#f4f5f7" style="mix-blend-mode: multiply;isolation: isolate"/>
      <circle id="Ellipse_905-2" data-name="Ellipse 905" cx="9" cy="9" r="9" transform="translate(-5259.923 -20163)" fill="#f4f5f7" style="mix-blend-mode: multiply;isolation: isolate"/>
      <circle id="Ellipse_904-2" data-name="Ellipse 904" cx="9" cy="9" r="9" transform="translate(-5317.923 -20163)" fill="#f4f5f7" style="mix-blend-mode: multiply;isolation: isolate"/>
      <circle id="Ellipse_903-2" data-name="Ellipse 903" cx="9" cy="9" r="9" transform="translate(-5375.923 -20163)" fill="#f4f5f7" style="mix-blend-mode: multiply;isolation: isolate"/>
    </g>
    <g id="Group_43826" data-name="Group 43826" transform="translate(-10563.782 58)">
      <circle id="Ellipse_906-3" data-name="Ellipse 906" cx="9" cy="9" r="9" transform="translate(-5201.923 -20163)" fill="#f4f5f7"/>
      <circle id="Ellipse_905-3" data-name="Ellipse 905" cx="9" cy="9" r="9" transform="translate(-5259.923 -20163)" fill="#f4f5f7"/>
      <circle id="Ellipse_904-3" data-name="Ellipse 904" cx="9" cy="9" r="9" transform="translate(-5317.923 -20163)" fill="#f4f5f7"/>
      <circle id="Ellipse_903-3" data-name="Ellipse 903" cx="9" cy="9" r="9" transform="translate(-5375.923 -20163)" fill="#f4f5f7"/>
    </g>
    <g id="Group_43820" data-name="Group 43820" transform="translate(-10563.782)">
      <circle id="Ellipse_906-4" data-name="Ellipse 906" cx="9" cy="9" r="9" transform="translate(-5201.923 -20163)" fill="#f4f5f7"/>
      <circle id="Ellipse_905-4" data-name="Ellipse 905" cx="9" cy="9" r="9" transform="translate(-5259.923 -20163)" fill="#f4f5f7"/>
      <circle id="Ellipse_904-4" data-name="Ellipse 904" cx="9" cy="9" r="9" transform="translate(-5317.923 -20163)" fill="#f4f5f7"/>
      <circle id="Ellipse_903-4" data-name="Ellipse 903" cx="9" cy="9" r="9" transform="translate(-5375.923 -20163)" fill="#f4f5f7"/>
    </g>
  </g>
</svg>
