<svg id="アイコン" xmlns="http://www.w3.org/2000/svg" width="24" height="24" viewBox="0 0 24 24">
  <g id="apartment_black_24dp">
    <g id="Group_41839" data-name="Group 41839">
      <rect id="Rectangle_20740" data-name="Rectangle 20740" width="24" height="24" fill="none"/>
    </g>
    <g id="Group_41840" data-name="Group 41840">
      <path id="Path_11045" data-name="Path 11045" d="M17,11V3H7V7H3V21h8V17h2v4h8V11ZM7,19H5V17H7Zm0-4H5V13H7Zm0-4H5V9H7Zm4,4H9V13h2Zm0-4H9V9h2Zm0-4H9V5h2Zm4,8H13V13h2Zm0-4H13V9h2Zm0-4H13V5h2Zm4,12H17V17h2Zm0-4H17V13h2Z" fill="#222831"/>
    </g>
  </g>
</svg>
