<svg xmlns="http://www.w3.org/2000/svg" xmlns:xlink="http://www.w3.org/1999/xlink" width="176.285" height="28" viewBox="0 0 176.285 28">
  <defs>
    <linearGradient id="linear-gradient" x1="0.053" y1="0.337" x2="0.947" y2="0.663" gradientUnits="objectBoundingBox">
      <stop offset="0.35" stop-color="#e87722"/>
      <stop offset="0.471" stop-color="#c55f39"/>
      <stop offset="0.633" stop-color="#9c4353"/>
      <stop offset="0.781" stop-color="#7f2f65"/>
      <stop offset="0.908" stop-color="#6d2271"/>
      <stop offset="1" stop-color="#671e75"/>
    </linearGradient>
    <linearGradient id="linear-gradient-2" x1="-0.068" y1="0.31" x2="1.019" y2="0.888" xlink:href="#linear-gradient"/>
  </defs>
  <g id="NOMURA_WORK-LIFE_PLUS_ロゴ_納品_RGB-02" data-name="NOMURA WORK-LIFE PLUS_ロゴ_納品_RGB-02" transform="translate(-34.63 -32.02)">
    <g id="Group_43418" data-name="Group 43418" transform="translate(34.63 32.02)">
      <g id="Group_43416" data-name="Group 43416" transform="translate(48.8 4.133)">
        <g id="Group_43414" data-name="Group 43414" transform="translate(0.004)">
          <path id="Path_11556" data-name="Path 11556" d="M158.976,44.174a.423.423,0,0,1,.031.039l3.359,4.8c.093.136.187.268.28.4.187.268.377.54.552.8a.419.419,0,0,0,.451.257c.19,0,.334-.019.334-.284,0-.128-.012-.373-.019-.556-.012-.358-.012-.848-.012-1.283V45c0-.385,0-.867.012-1.314l.016-.451c0-.14.008-.237.008-.261,0-.268-.121-.319-.346-.319h-.159c-.226,0-.346.051-.346.319,0,.023,0,.113.008.245l.015.466c.012.439.012.925.012,1.314v3.74a.189.189,0,0,1,0,.051.436.436,0,0,1-.031-.039l-3.157-4.518c-.307-.435-.606-.863-.886-1.3a.469.469,0,0,0-.49-.28h-.1c-.226,0-.346.051-.346.319,0,.078.012.33.019.575.012.381.012.848.012,1.225v3.355c0,.424,0,.82-.012,1.26-.012.307-.019.634-.019.77,0,.268.12.319.346.319h.159c.226,0,.346-.051.346-.319,0-.148-.012-.5-.019-.813-.012-.439-.012-.816-.012-1.213v-3.9A.089.089,0,0,1,158.976,44.174Z" transform="translate(-158.16 -42.65)"/>
          <path id="Path_11557" data-name="Path 11557" d="M203.3,47.88a.316.316,0,0,0,.276-.163l2.368-3.472a.365.365,0,0,1,.027-.035c0,.016,0,.031,0,.054l.054,3.651c.012,1.092.012,2.084.012,2.263,0,.268.121.319.346.319h.159c.171,0,.334-.023.334-.284,0-.148-.012-.459-.031-.949-.008-.2-.012-.5-.019-.793l-.054-3.678c-.008-.369,0-.77,0-1.162,0-.2,0-.393,0-.583,0-.288-.082-.373-.358-.373h-.085a.455.455,0,0,0-.482.28c-.191.307-.42.645-.638.972l-1.792,2.632c-.074.113-.105.128-.109.128s-.043-.027-.121-.132l-1.7-2.469c-.307-.443-.544-.8-.746-1.135a.469.469,0,0,0-.49-.28h-.074c-.225,0-.346.051-.346.319,0,.976,0,1.52-.012,1.8l-.043,3.13c0,.152-.008.3-.008.451,0,.3-.008.591-.023.91,0,.136-.012.272-.015.4-.008.2-.016.381-.016.525,0,.264.167.284.334.284h.159c.272,0,.358-.089.358-.373v-.408c0-.482-.008-1.209,0-1.8l.054-3.662a.174.174,0,0,1,0-.051c.008.008.016.023.027.039l2.368,3.5A.316.316,0,0,0,203.3,47.88Z" transform="translate(-183.562 -42.662)"/>
          <path id="Path_11558" data-name="Path 11558" d="M227.863,45.018c0-.346,0-.778.012-1.159l.015-.587c0-.152.008-.257.008-.284,0-.268-.121-.319-.346-.319h-.171c-.226,0-.346.051-.346.319,0,.086.008.439.02.813v.058c.012.381.012.813.012,1.159V47.79a1.938,1.938,0,0,1-2.138,1.991,1.85,1.85,0,0,1-2.01-1.979V45.018c0-.365,0-.867.012-1.283,0-.206.012-.381.015-.509s.008-.21.008-.237c0-.268-.121-.319-.346-.319h-.171c-.226,0-.346.051-.346.319,0,.027,0,.113.008.237s.008.315.016.529c.012.4.012.9.012,1.26v2.873A2.548,2.548,0,0,0,224.9,50.6a2.679,2.679,0,0,0,2.966-2.741V45.018Z" transform="translate(-197.235 -42.662)"/>
          <path id="Path_11559" data-name="Path 11559" d="M263.93,50.092c-.272-.626-.552-1.275-.82-1.948l-1.5-3.74c-.21-.513-.385-.972-.533-1.4-.085-.268-.171-.334-.436-.334h-.159c-.268,0-.354.066-.436.33-.194.536-.369,1-.533,1.4l-1.5,3.74-.012.031c-.264.641-.525,1.287-.8,1.928l-.012.031a.472.472,0,0,0-.047.175c0,.183.214.183.292.183h.214c.268,0,.353-.066.435-.33.2-.572.377-1.038.618-1.652l.054-.136c.043-.109.117-.179.334-.179h2.912c.218,0,.292.07.334.179l.054.136c.245.618.424,1.085.618,1.648.086.268.171.334.439.334h.256c.082,0,.292,0,.292-.183a.435.435,0,0,0-.05-.179Zm-1.994-2.7s-.031.019-.159.019h-2.461c-.124,0-.152-.016-.155-.031a.784.784,0,0,1,.039-.136l.008-.019,1.295-3.3a.856.856,0,0,1,.043-.093.366.366,0,0,1,.05.1l1.3,3.316A.515.515,0,0,1,261.936,47.394Z" transform="translate(-218.664 -42.662)"/>
          <path id="Path_11560" data-name="Path 11560" d="M246.143,50.153c-.61-.723-1.034-1.256-1.485-1.819-.121-.156-.245-.307-.373-.467l-.392-.482c-.023-.027-.039-.051-.054-.07a2.289,2.289,0,0,0,1.858-2.48c0-1.442-.774-2.173-2.3-2.173h-.739c-.389,0-.886,0-1.182-.008-.124,0-.214,0-.241,0-.2,0-.28.082-.28.3,0,.031,0,.148,0,.315,0,.416.008,1.186.008,1.718v3.18c0,.354,0,.836-.012,1.26,0,.206-.012.385-.016.521s-.008.249-.008.28c0,.222.078.26.292.26h.175c.218,0,.292-.039.292-.26,0-.039,0-.152-.008-.315,0-.136-.008-.307-.015-.5-.012-.412-.012-.894-.012-1.248V47.7c0-.268.043-.311.3-.311h1.065c.031.031.062.066.1.113l.614.778c.505.641.98,1.248,1.45,1.956a.425.425,0,0,0,.451.241h.412c.07,0,.218,0,.218-.113A.392.392,0,0,0,246.143,50.153Zm-4.487-3.744V43.665c0-.268.043-.311.3-.311h1.357c1.135,0,1.687.5,1.687,1.536a1.68,1.68,0,0,1-1.87,1.831h-1.174C241.7,46.721,241.657,46.678,241.657,46.41Z" transform="translate(-208.751 -42.65)"/>
          <path id="Path_11561" data-name="Path 11561" d="M180.78,42.88a3.81,3.81,0,1,0,3.81,3.81A3.811,3.811,0,0,0,180.78,42.88Zm0,6.846a3.036,3.036,0,1,1,3.036-3.036A3.038,3.038,0,0,1,180.78,49.726Z" transform="translate(-169.657 -42.791)"/>
        </g>
        <g id="Group_43415" data-name="Group 43415" transform="translate(0 12.332)">
          <path id="Path_11562" data-name="Path 11562" d="M172.877,74.63h-.33c-.358,0-.447.074-.544.432-.237.906-.505,1.773-.735,2.5l-1.924,6.162c-.051.163-.089.2-.113.2,0,0-.035-.008-.1-.183l-2.1-6.182c-.26-.746-.56-1.637-.828-2.55-.086-.319-.167-.381-.5-.381s-.4.062-.482.381c-.264.851-.568,1.718-.855,2.558L162.2,83.743c-.062.175-.1.183-.1.183-.023,0-.062-.035-.113-.2l-1.878-6.147c-.241-.77-.505-1.687-.735-2.519-.1-.365-.179-.432-.529-.432h-.362c-.183,0-.342.016-.342.194a.832.832,0,0,0,.051.249c.284.8.568,1.656.844,2.554l1.815,5.75.093.3c.191.618.373,1.2.533,1.788.086.377.194.432.544.432.373,0,.463-.07.56-.428.167-.568.369-1.143.564-1.7l2.411-6.835c.074-.191.109-.2.113-.2s.066.051.113.2l2.239,6.477.093.272c.206.61.4,1.186.579,1.784.1.365.183.432.56.432s.463-.07.56-.432c.187-.692.408-1.392.626-2.076l1.862-5.785c.288-.914.572-1.742.859-2.539a.806.806,0,0,0,.051-.245C173.223,74.646,173.06,74.63,172.877,74.63Z" transform="translate(-158.15 -74.529)"/>
          <path id="Path_11563" data-name="Path 11563" d="M257.362,82.553c0,.634,0,1.5.015,2.092.016.3.031.754.031.875,0,.319-.109.377-.42.377h-.249c-.311,0-.42-.058-.42-.377,0-.117.016-.486.031-.844.016-.641.016-1.5.016-2.123v-4.58c0-.614,0-1.252-.016-1.975-.015-.381-.031-.875-.031-.991,0-.319.109-.377.42-.377h.249c.311,0,.42.058.42.377,0,.113-.015.575-.031.976-.015.723-.015,1.337-.015,1.991Z" transform="translate(-218.153 -74.529)"/>
          <path id="Path_11564" data-name="Path 11564" d="M260.342,80.223a.711.711,0,0,1,.264-.459l1-1.069c1.046-1.131,2.169-2.34,3.441-3.561a.458.458,0,0,0,.155-.3c0-.167-.128-.249-.377-.249h-.381a.881.881,0,0,0-.863.42c-.874,1.019-1.773,2.026-2.678,2.994L259.615,79.4c-.552.607-.754.867,0,1.68l1.287,1.392c.906.968,1.8,1.975,2.678,2.994a.891.891,0,0,0,.863.42h.381c.253,0,.377-.086.377-.249a.477.477,0,0,0-.155-.3c-1.267-1.221-2.395-2.43-3.441-3.561l-1-1.069c-.186-.194-.264-.33-.264-.459Z" transform="translate(-219.866 -74.504)"/>
          <path id="Path_11565" data-name="Path 11565" d="M281.5,87.98c-.035,0-.117,0-.233,0-.245,0-.653.012-1.018.012h-1.128c-.393,0-.871-.008-1.155-.012-.128,0-.222,0-.253,0-.3,0-.358.117-.358.443v.132c0,.327.054.443.358.443.035,0,.125,0,.253,0,.284,0,.762-.012,1.155-.012h1.128c.365,0,.774.008,1.018.012.113,0,.2,0,.233,0,.3,0,.358-.117.358-.443v-.132C281.862,88.093,281.808,87.98,281.5,87.98Z" transform="translate(-231.013 -82.689)"/>
          <path id="Path_11566" data-name="Path 11566" d="M304.31,84.878c-.124,0-.315.008-.556.019l-.307.012c-.455.016-2.084.016-2.515.016h-2.655c-.366,0-.424-.062-.424-.447v-6.5c0-.6,0-1.17.015-1.812.016-.443.031-1.042.031-1.155,0-.319-.109-.377-.42-.377h-.249c-.311,0-.42.058-.42.377,0,.128.02.77.031,1.139.016.657.016,1.229.016,1.827v4.615c0,.754-.008,1.855-.012,2.445,0,.241,0,.408,0,.455,0,.307.113.428.4.428.062,0,.218,0,.424,0,.412,0,1.03-.012,1.532-.012h1.73c.482,0,2.262.008,2.733.012.28,0,.5,0,.6,0,.3,0,.358-.117.358-.443V85.31C304.62,85.01,304.574,84.878,304.31,84.878Z" transform="translate(-242.902 -74.529)"/>
          <path id="Path_11567" data-name="Path 11567" d="M324.5,76.014c.015-.369.031-.886.031-1.007,0-.319-.109-.377-.42-.377h-.249c-.311,0-.42.058-.42.377,0,.113.015.641.031,1.022.015.692.015,1.33.015,1.944v4.58c0,.641,0,1.516-.015,1.975-.008.237-.031.813-.031.991,0,.319.109.377.42.377h.249c.311,0,.42-.058.42-.377,0-.148-.016-.614-.031-1.007-.016-.459-.016-1.326-.016-1.959v-4.58C324.482,77.359,324.482,76.722,324.5,76.014Z" transform="translate(-259.178 -74.529)"/>
          <path id="Path_11568" data-name="Path 11568" d="M341.772,74.59c-.074,0-.264,0-.509,0-.459,0-3.149.012-3.674.012h-.471c-.576,0-1.221-.008-1.648-.012-.2,0-.342,0-.4,0-.292,0-.4.12-.4.428,0,.074,0,.288,0,.579,0,.638.012,1.6.012,2.321v4.615c0,.657,0,1.334-.015,1.928-.008.218-.012.42-.02.587-.008.237-.012.4-.012.455,0,.319.109.377.42.377h.249c.311,0,.42-.058.42-.393,0-.043,0-.167-.012-.346s-.012-.389-.019-.641c-.016-.626-.016-1.4-.016-1.959v-1.33c0-.385.058-.447.424-.447h1.174c.37,0,2.869,0,3.293.016.253.008.466.016.622.023l.272.008c.3,0,.358-.117.358-.443v-.183c0-.327-.054-.443-.358-.443-.058,0-.159,0-.311.012s-.33.016-.568.023c-.424.015-2.908.015-3.309.015H336.1c-.365,0-.424-.062-.424-.447V76.059c0-.385.058-.447.424-.447h1.489c.42,0,2.931,0,3.371.016.2.008.366.016.5.019q.257.012.362.012c.269,0,.311-.132.311-.428v-.2C342.13,74.7,342.075,74.59,341.772,74.59Z" transform="translate(-266.018 -74.504)"/>
          <path id="Path_11569" data-name="Path 11569" d="M366.992,84.835c-.058,0-.206.008-.412.016-.125,0-.272.012-.436.019-.455.016-.952.016-1.392.016h-3.794c-.366,0-.424-.062-.424-.447V81.181c0-.385.058-.447.424-.447h3.169c.614,0,1.252,0,1.827.031.175.016.319.016.366.016.3,0,.358-.117.358-.443v-.183c0-.327-.054-.443-.358-.443a3.291,3.291,0,0,0-.33.016c-.626.031-1.252.031-1.862.031h-3.169c-.366,0-.424-.062-.424-.447V76.026c0-.385.058-.447.424-.447h3.48c.529,0,1.128,0,1.563.016.245.016.517.035.677.035.268,0,.311-.132.311-.428V75c0-.327-.054-.443-.358-.443-.031,0-.144,0-.315,0-.451,0-1.295.012-1.878.012h-.47c-.556,0-3.328-.008-3.744-.012-.159,0-.272,0-.3,0-.292,0-.4.121-.4.428,0,.027,0,.156,0,.35,0,.571.012,1.757.012,2.55v4.658c0,.653-.008,1.6-.012,2.232,0,.33,0,.579,0,.669,0,.307.113.428.4.428.062,0,.225,0,.439,0,.436,0,3.091-.012,3.6-.012h.781c.587,0,1.294.008,1.761.012.214,0,.369,0,.431,0,.3,0,.358-.117.358-.443v-.163C367.307,84.968,367.26,84.835,366.992,84.835Z" transform="translate(-281.231 -74.486)"/>
          <path id="Path_11570" data-name="Path 11570" d="M399.519,74.605h-1.065c-.564,0-1.275-.008-1.7-.012-.179,0-.307,0-.346,0-.292,0-.4.12-.4.428,0,.047,0,.214,0,.455,0,.6.012,1.707.012,2.476v4.58c0,.509,0,1.2-.016,1.812-.008.3-.015.552-.02.754s-.012.358-.012.4c0,.319.109.377.42.377h.249c.311,0,.42-.058.42-.377,0-.054,0-.218-.012-.455,0-.194-.012-.439-.02-.715-.015-.591-.015-1.287-.015-1.8v-.661c0-.385.058-.447.424-.447h1.6c2.418,0,3.8-1.345,3.8-3.69C402.836,75.659,401.72,74.605,399.519,74.605Zm-2.507,1.446c0-.385.058-.447.424-.447h1.955c1.633,0,2.43.723,2.43,2.208a2.423,2.423,0,0,1-2.694,2.64h-1.691c-.366,0-.424-.062-.424-.447Z" transform="translate(-303.51 -74.504)"/>
          <path id="Path_11571" data-name="Path 11571" d="M450.32,74.63h-.249c-.311,0-.42.058-.42.377,0,.12.012.571.027,1.1l0,.175c.016.56.016,1.19.016,1.7v4.055a2.945,2.945,0,0,1-3.211,3,2.788,2.788,0,0,1-3.025-2.986v-4.07c0-.537,0-1.267.016-1.878.008-.307.016-.564.023-.754s.008-.3.008-.334c0-.319-.108-.377-.42-.377h-.249c-.311,0-.42.058-.42.377,0,.039,0,.163.008.346s.015.463.023.778c.016.591.016,1.318.016,1.843v4.2a3.649,3.649,0,0,0,3.977,3.888c2.585,0,4.257-1.54,4.257-3.919V77.974c0-.505,0-1.135.015-1.7.008-.338.016-.634.023-.855s.012-.373.012-.412C450.744,74.684,450.631,74.63,450.32,74.63Z" transform="translate(-331.901 -74.529)"/>
          <path id="Path_11572" data-name="Path 11572" d="M472.494,79.482c-1.714-.809-2.415-1.244-2.415-2.329,0-1.061.875-1.749,2.224-1.749a3.72,3.72,0,0,1,2.072.6.491.491,0,0,0,.276.124c.128,0,.187-.117.26-.311l.109-.28a.738.738,0,0,0,.066-.284c0-.163-.1-.237-.307-.338a5.5,5.5,0,0,0-2.321-.548c-2.123,0-3.445,1.081-3.445,2.815,0,1.862,1.567,2.589,3.079,3.289,1.24.568,2.352,1.178,2.352,2.379s-.918,1.979-2.333,1.979a4.446,4.446,0,0,1-2.62-.863.535.535,0,0,0-.276-.14c-.124,0-.2.113-.276.292l-.109.249a.779.779,0,0,0-.082.284c0,.144.1.237.272.354a5.63,5.63,0,0,0,2.982.832c2.111,0,3.476-1.19,3.476-3.033C475.48,81.03,474.189,80.279,472.494,79.482Z" transform="translate(-347.995 -74.37)"/>
          <path id="Path_11573" data-name="Path 11573" d="M238.2,85.4c-.883-1.046-1.493-1.812-2.138-2.62-.175-.222-.354-.443-.537-.673l-.564-.692c-.031-.039-.058-.074-.078-.1a3.3,3.3,0,0,0,2.679-3.573c0-2.076-1.116-3.13-3.316-3.13h-1.065c-.564,0-1.275-.008-1.7-.012-.179,0-.307,0-.346,0-.292,0-.4.12-.4.428,0,.047,0,.214,0,.455,0,.6.012,1.707.012,2.477v4.58c0,.509,0,1.2-.015,1.812-.008.3-.016.552-.02.754s-.012.358-.012.4c0,.319.109.377.42.377h.249c.311,0,.42-.058.42-.377,0-.054,0-.218-.012-.455,0-.194-.012-.439-.019-.715-.016-.591-.016-1.287-.016-1.8v-.661c0-.385.058-.447.424-.447H233.7a1.568,1.568,0,0,1,.144.163l.883,1.12c.727.925,1.415,1.8,2.092,2.819a.613.613,0,0,0,.649.35h.595c.1,0,.311,0,.311-.163A.6.6,0,0,0,238.2,85.4Zm-6.462-5.388V76.058c0-.385.058-.447.424-.447h1.956c1.633,0,2.43.723,2.43,2.208a2.424,2.424,0,0,1-2.694,2.64h-1.691C231.8,80.463,231.742,80.4,231.742,80.016Z" transform="translate(-202.494 -74.511)"/>
          <path id="Path_11574" data-name="Path 11574" d="M426.879,84.878c-.124,0-.315.008-.556.019l-.307.012c-.455.016-2.084.016-2.516.016h-2.655c-.365,0-.424-.062-.424-.447v-6.5c0-.6,0-1.17.016-1.812.015-.443.031-1.042.031-1.155,0-.319-.109-.377-.42-.377H419.8c-.311,0-.42.058-.42.377,0,.128.02.77.031,1.139.015.657.015,1.229.015,1.827v4.615c0,.754-.008,1.855-.012,2.445,0,.241,0,.408,0,.455,0,.307.113.428.4.428.062,0,.217,0,.423,0,.412,0,1.031-.012,1.532-.012h1.73c.482,0,2.263.008,2.733.012.28,0,.5,0,.6,0,.3,0,.357-.117.357-.443V85.31C427.19,85.01,427.144,84.878,426.879,84.878Z" transform="translate(-317.818 -74.529)"/>
        </g>
        <path id="Path_11575" data-name="Path 11575" d="M203.1,75.01a5.486,5.486,0,1,0,5.486,5.486A5.487,5.487,0,0,0,203.1,75.01Zm0,9.86A4.374,4.374,0,1,1,207.47,80.5,4.375,4.375,0,0,1,203.1,84.87Z" transform="translate(-182.269 -62.429)"/>
      </g>
      <g id="Group_43417" data-name="Group 43417" transform="translate(0 0)">
        <path id="Path_11576" data-name="Path 11576" d="M117.109,36.95h-3.67V33.28a1.26,1.26,0,1,0-2.519,0v3.67h-3.67a1.26,1.26,0,0,0,0,2.519h3.67v3.67a1.26,1.26,0,1,0,2.519,0v-3.67h3.67a1.26,1.26,0,0,0,0-2.519Z" transform="translate(-77.469 -32.02)" fill="url(#linear-gradient)"/>
        <path id="Path_11577" data-name="Path 11577" d="M72.27,57.5H56.338V33.28h0A1.263,1.263,0,0,0,56,32.432a1.064,1.064,0,0,0-.214-.183,1.226,1.226,0,0,0-.61-.214,1.2,1.2,0,0,0-.264.008,1.294,1.294,0,0,0-.618.261,1.28,1.28,0,0,0-.26.28,1.2,1.2,0,0,0-.132.253L45.744,52.45V33.284a1.262,1.262,0,0,0-2.426-.486L35.149,52.447V33.28a1.26,1.26,0,1,0-2.519,0V58.756a1.262,1.262,0,0,0,2.426.486l8.168-19.649V58.76A1.261,1.261,0,0,0,44.239,60a1.35,1.35,0,0,0,.249.023,1.258,1.258,0,0,0,1.162-.778l8.168-19.649V58.76a1.259,1.259,0,0,0,1.26,1.26h17.2a1.26,1.26,0,1,0,0-2.519Z" transform="translate(-32.63 -32.02)" fill="url(#linear-gradient-2)"/>
      </g>
    </g>
  </g>
</svg>
