<svg xmlns="http://www.w3.org/2000/svg" xmlns:xlink="http://www.w3.org/1999/xlink" width="166.051" height="140" viewBox="0 0 166.051 140">
  <defs>
    <linearGradient id="linear-gradient" x1="0.052" y1="0.337" x2="0.947" y2="0.663" gradientUnits="objectBoundingBox">
      <stop offset="0.35" stop-color="#e87722"/>
      <stop offset="0.471" stop-color="#c55f39"/>
      <stop offset="0.633" stop-color="#9c4353"/>
      <stop offset="0.781" stop-color="#7f2f65"/>
      <stop offset="0.908" stop-color="#6d2271"/>
      <stop offset="1" stop-color="#671e75"/>
    </linearGradient>
    <linearGradient id="linear-gradient-2" x1="-0.068" y1="0.31" x2="1.019" y2="0.888" xlink:href="#linear-gradient"/>
  </defs>
  <g id="NOMURA_WORK-LIFE_PLUS_ロゴ_納品_RGB-01" data-name="NOMURA WORK-LIFE PLUS_ロゴ_納品_RGB-01" transform="translate(-0.11 -0.26)">
    <rect id="Rectangle_20941" data-name="Rectangle 20941" width="166.051" height="140" transform="translate(0.11 0.26)" fill="none"/>
    <g id="Group_43412" data-name="Group 43412" transform="translate(21.008 21.161)">
      <g id="Group_43410" data-name="Group 43410" transform="translate(0 75.004)">
        <g id="Group_43408" data-name="Group 43408" transform="translate(40.031)">
          <path id="Path_11534" data-name="Path 11534" d="M94.441,148.969a.248.248,0,0,1,.033.039l3.277,4.677c.091.13.182.261.274.4.182.261.365.528.534.788a.412.412,0,0,0,.436.254c.182,0,.326-.02.326-.28,0-.124-.013-.365-.02-.541-.013-.352-.013-.827-.013-1.251v-3.277c0-.378,0-.847.013-1.283l.013-.436c.007-.137.007-.235.007-.254,0-.261-.117-.313-.339-.313h-.156c-.221,0-.339.052-.339.313,0,.02,0,.111.007.235l.013.456c.013.43.013.9.013,1.283v3.7a.247.247,0,0,1-.033-.039l-3.075-4.4c-.3-.423-.593-.84-.86-1.27a.456.456,0,0,0-.482-.274h-.091c-.221,0-.339.052-.339.313,0,.078.013.319.02.56.013.371.013.827.013,1.192v3.27c0,.41,0,.8-.013,1.225-.013.3-.02.619-.02.749,0,.261.117.313.339.313h.156c.221,0,.339-.052.339-.313,0-.143-.013-.482-.02-.795-.013-.43-.013-.795-.013-1.186v-3.85Z" transform="translate(-93.64 -147.484)" fill="#231815"/>
          <path id="Path_11535" data-name="Path 11535" d="M121.325,152.571a.3.3,0,0,0,.267-.156l2.306-3.381c.007-.013.02-.026.026-.039,0,.013.007.033.007.052l.052,3.557c.013,1.062.013,2.032.013,2.208,0,.261.117.313.339.313h.156c.163,0,.326-.02.326-.28,0-.143-.013-.449-.033-.925-.007-.2-.013-.489-.02-.775l-.052-3.583c-.007-.358-.007-.749,0-1.134v-.567c0-.28-.078-.365-.345-.365h-.085a.44.44,0,0,0-.469.274c-.189.3-.41.625-.619.945l-1.746,2.567c-.072.111-.1.124-.1.124s-.046-.026-.117-.13l-1.661-2.4c-.3-.43-.528-.782-.73-1.107a.452.452,0,0,0-.476-.274h-.072c-.221,0-.339.052-.339.313,0,.951-.007,1.479-.013,1.752L117.9,152.6c-.007.15-.007.293-.007.443-.007.287-.007.573-.026.886-.007.137-.013.267-.013.391-.007.2-.013.371-.013.515,0,.254.163.28.326.28h.156c.267,0,.345-.085.345-.365v-.4c0-.469-.007-1.179,0-1.752l.052-3.57a.127.127,0,0,1,.007-.052.1.1,0,0,1,.026.039l2.306,3.407A.3.3,0,0,0,121.325,152.571Z" transform="translate(-102.075 -147.484)" fill="#231815"/>
          <path id="Path_11536" data-name="Path 11536" d="M136.455,149.773c0-.339,0-.756.013-1.127l.013-.573c.007-.15.007-.248.007-.28,0-.261-.117-.313-.339-.313h-.169c-.221,0-.339.052-.339.313,0,.085.007.423.02.795v.059c.013.371.013.788.013,1.127v2.7a1.888,1.888,0,0,1-2.085,1.941,1.8,1.8,0,0,1-1.954-1.928v-2.716c0-.358,0-.847.013-1.251.007-.2.013-.371.013-.5s.007-.2.007-.235c0-.261-.117-.313-.339-.313h-.169c-.221,0-.339.052-.339.313,0,.026,0,.111.007.235s.007.306.013.515c.013.391.013.873.013,1.225v2.8a2.485,2.485,0,0,0,2.7,2.651,2.612,2.612,0,0,0,2.892-2.671v-2.775Z" transform="translate(-106.6 -147.48)" fill="#231815"/>
          <path id="Path_11537" data-name="Path 11537" d="M157.842,154.727c-.267-.612-.541-1.244-.795-1.9l-1.459-3.648c-.2-.5-.371-.951-.521-1.368-.085-.261-.169-.326-.423-.326h-.156c-.261,0-.345.065-.423.319-.189.521-.358.971-.521,1.368l-1.459,3.642-.013.033c-.254.625-.515,1.251-.782,1.883l-.013.026a.472.472,0,0,0-.046.169c0,.176.208.176.287.176h.208c.261,0,.345-.065.423-.326.2-.56.365-1.01.606-1.609l.052-.13c.046-.1.117-.176.326-.176h2.834c.215,0,.287.072.326.176l.052.13c.235.6.41,1.055.606,1.609.085.261.169.326.423.326h.248c.078,0,.287,0,.287-.176a.44.44,0,0,0-.046-.169Zm-1.948-2.632c-.007.007-.033.02-.156.02h-2.4c-.124,0-.15-.013-.156-.033a.8.8,0,0,1,.039-.137l.007-.02,1.264-3.218c.02-.059.039-.085.039-.091a.353.353,0,0,1,.046.091l1.27,3.231A.542.542,0,0,1,155.894,152.1Z" transform="translate(-113.714 -147.483)" fill="#231815"/>
          <path id="Path_11538" data-name="Path 11538" d="M146.874,154.789c-.6-.7-1.01-1.225-1.446-1.772-.117-.15-.241-.3-.365-.456l-.384-.469a.5.5,0,0,1-.052-.072,2.23,2.23,0,0,0,1.811-2.417c0-1.407-.756-2.117-2.247-2.117h-.723c-.378,0-.866-.007-1.153-.007h-.235c-.2,0-.274.078-.274.287v.306c0,.4.007,1.153.007,1.674v3.1c0,.345,0,.814-.013,1.225-.007.2-.013.371-.013.508s-.007.241-.007.274c0,.215.072.254.287.254h.169c.208,0,.287-.039.287-.254,0-.039,0-.15-.007-.306-.007-.13-.007-.3-.013-.482-.013-.4-.013-.873-.013-1.212v-.443c0-.261.039-.3.287-.3h1.042a.846.846,0,0,1,.1.111l.6.756c.489.625.958,1.218,1.414,1.909a.416.416,0,0,0,.436.235h.4c.072,0,.208,0,.208-.111C146.985,154.952,146.952,154.887,146.874,154.789Zm-4.371-3.648V148.47c0-.261.039-.3.287-.3h1.322c1.107,0,1.642.489,1.642,1.5a1.639,1.639,0,0,1-1.824,1.785h-1.147C142.542,151.447,142.5,151.4,142.5,151.141Z" transform="translate(-110.42 -147.48)" fill="#231815"/>
          <path id="Path_11539" data-name="Path 11539" d="M108.313,147.61a3.713,3.713,0,1,0,3.713,3.713A3.712,3.712,0,0,0,108.313,147.61Zm0,6.677a2.958,2.958,0,1,1,2.958-2.958A2.955,2.955,0,0,1,108.313,154.287Z" transform="translate(-97.46 -147.525)" fill="#231815"/>
        </g>
        <g id="Group_43409" data-name="Group 43409" transform="translate(0 12.019)">
          <path id="Path_11540" data-name="Path 11540" d="M46.548,166.077h-.319c-.345,0-.436.072-.534.417-.228.879-.489,1.726-.717,2.436L43.1,174.936c-.052.156-.091.2-.111.2,0,0-.033-.007-.1-.176l-2.046-6.026c-.254-.73-.547-1.6-.808-2.488-.085-.306-.163-.371-.489-.371-.306,0-.391.065-.469.371-.261.827-.554,1.674-.834,2.495l-2.111,6.019c-.059.169-.1.176-.1.176-.02,0-.059-.033-.111-.2L34.1,168.943c-.235-.749-.5-1.648-.717-2.456-.1-.358-.176-.417-.515-.417h-.345c-.176,0-.332.013-.332.189a.962.962,0,0,0,.046.241c.274.775.554,1.616.821,2.488l1.772,5.6.091.293c.189.6.365,1.166.521,1.746.085.371.189.423.534.423.365,0,.449-.065.547-.417.163-.554.358-1.114.547-1.655l2.352-6.664c.072-.189.1-.2.111-.2s.065.052.111.2l2.182,6.312.091.267c.2.593.391,1.153.567,1.739.1.358.176.417.547.417s.449-.065.547-.417c.182-.671.4-1.355.612-2.019l1.818-5.635c.28-.892.554-1.7.84-2.475a.737.737,0,0,0,.046-.241C46.88,166.09,46.724,166.077,46.548,166.077Z" transform="translate(-32.19 -165.979)" fill="#231815"/>
          <path id="Path_11541" data-name="Path 11541" d="M90.306,173.81c0,.619,0,1.459.013,2.039.013.293.033.736.033.853,0,.313-.111.365-.41.365H89.7c-.3,0-.41-.059-.41-.365,0-.111.013-.476.033-.821.013-.625.013-1.459.013-2.072v-4.462c0-.6,0-1.218-.013-1.928-.013-.371-.033-.853-.033-.964,0-.313.111-.365.41-.365h.241c.306,0,.41.059.41.365,0,.111-.013.56-.033.951-.013.7-.013,1.3-.013,1.941Z" transform="translate(-52.093 -165.986)" fill="#231815"/>
          <path id="Path_11542" data-name="Path 11542" d="M92.109,171.542a.727.727,0,0,1,.254-.449l.977-1.042c1.016-1.1,2.117-2.28,3.355-3.472a.425.425,0,0,0,.15-.287c0-.163-.124-.241-.371-.241H96.1a.856.856,0,0,0-.84.41c-.853.99-1.726,1.974-2.612,2.918l-1.257,1.355c-.541.593-.736.847,0,1.635l1.257,1.355c.879.945,1.759,1.928,2.612,2.918a.856.856,0,0,0,.84.41h.371c.248,0,.371-.085.371-.241a.455.455,0,0,0-.15-.287c-1.238-1.192-2.332-2.365-3.355-3.472l-.977-1.042a.7.7,0,0,1-.254-.449Z" transform="translate(-52.658 -165.972)" fill="#231815"/>
          <path id="Path_11543" data-name="Path 11543" d="M105.562,173.84c-.033,0-.117,0-.228.007-.241.007-.638.013-1,.013h-1.1c-.378,0-.847-.007-1.127-.013-.124,0-.215-.007-.248-.007-.3,0-.352.111-.352.43v.13c0,.319.052.43.352.43.033,0,.124,0,.248-.007.28-.007.743-.013,1.127-.013h1.1c.358,0,.756.007,1,.013.111,0,.2.007.228.007.3,0,.352-.111.352-.43v-.13C105.914,173.957,105.862,173.84,105.562,173.84Z" transform="translate(-56.352 -168.687)" fill="#231815"/>
          <path id="Path_11544" data-name="Path 11544" d="M120.163,176.063c-.124,0-.306.007-.541.02l-.3.013c-.443.013-2.032.013-2.449.013h-2.586c-.358,0-.41-.059-.41-.436v-6.345c0-.586,0-1.14.013-1.765.013-.43.033-1.016.033-1.127,0-.313-.111-.365-.41-.365h-.241c-.3,0-.41.059-.41.365,0,.124.02.749.033,1.107.013.645.013,1.2.013,1.785v4.495c0,.736-.007,1.8-.013,2.384v.443c0,.3.111.417.4.417.059,0,.215,0,.417-.007.4-.007,1-.013,1.492-.013h1.687c.469,0,2.208.007,2.664.013.274,0,.489.007.586.007.3,0,.352-.111.352-.43v-.163C120.462,176.193,120.423,176.063,120.163,176.063Z" transform="translate(-60.309 -165.979)" fill="#231815"/>
          <path id="Path_11545" data-name="Path 11545" d="M129.369,167.428c.013-.358.033-.866.033-.984,0-.313-.111-.365-.41-.365h-.241c-.3,0-.41.059-.41.365,0,.111.013.625.033,1,.013.671.013,1.3.013,1.9V173.8c0,.625,0,1.479-.013,1.928-.007.235-.033.788-.033.964,0,.313.111.365.41.365h.241c.306,0,.41-.059.41-.365,0-.143-.013-.6-.033-.984-.013-.449-.013-1.3-.013-1.909v-4.462C129.356,168.738,129.356,168.119,129.369,167.428Z" transform="translate(-65.704 -165.982)" fill="#231815"/>
          <path id="Path_11546" data-name="Path 11546" d="M141.811,166.05c-.072,0-.254,0-.5.007-.449.007-3.068.013-3.583.013h-.456c-.56,0-1.192-.007-1.6-.013-.2,0-.332-.007-.391-.007-.287,0-.4.117-.4.417,0,.072,0,.28.007.567.007.619.013,1.563.013,2.26v4.495c0,.638,0,1.3-.013,1.876-.007.215-.013.41-.02.573-.007.235-.013.4-.013.443,0,.313.111.365.41.365h.241c.306,0,.41-.059.41-.384,0-.039-.007-.163-.013-.339s-.013-.378-.02-.625c-.013-.612-.013-1.362-.013-1.909v-1.3c0-.371.059-.436.41-.436h1.147c.358,0,2.795,0,3.205.013.248.007.456.02.606.02s.235.007.267.007c.3,0,.352-.111.352-.43v-.176c0-.319-.052-.43-.352-.43-.052,0-.156.007-.3.013s-.326.013-.554.02c-.41.013-2.834.013-3.225.013h-1.147c-.358,0-.41-.059-.41-.436v-3.2c0-.371.059-.436.41-.436h1.453c.41,0,2.86,0,3.283.013q.293.01.489.02c.169.007.287.013.352.013.261,0,.306-.13.306-.417v-.2C142.163,166.167,142.1,166.05,141.811,166.05Z" transform="translate(-67.977 -165.972)" fill="#231815"/>
          <path id="Path_11547" data-name="Path 11547" d="M156.6,176.053c-.059,0-.2.007-.4.013l-.423.02c-.443.013-.925.013-1.355.013h-3.7c-.358,0-.41-.059-.41-.436v-3.173c0-.371.059-.436.41-.436H153.8c.6,0,1.218,0,1.778.033.169.013.306.013.358.013.3,0,.352-.111.352-.43v-.176c0-.319-.052-.43-.352-.43-.046,0-.169,0-.326.013-.612.033-1.225.033-1.811.033h-3.088c-.358,0-.41-.059-.41-.436v-3.2c0-.371.059-.436.41-.436h3.394c.515,0,1.1,0,1.524.013.235.013.5.033.658.033.261,0,.306-.13.306-.417v-.2c0-.319-.052-.43-.352-.43h-.306c-.443.007-1.264.013-1.831.013h-.456c-.541,0-3.244-.007-3.648-.013h-.293c-.287,0-.4.117-.4.417v.339c.007.554.013,1.713.013,2.488v4.527c0,.638-.007,1.563-.013,2.176,0,.319-.007.567-.007.651,0,.3.111.417.4.417.059,0,.221,0,.43-.007.423-.007,3.01-.013,3.511-.013h.762c.573,0,1.264.007,1.72.013.208,0,.358.007.417.007.3,0,.352-.111.352-.43v-.163C156.906,176.183,156.86,176.053,156.6,176.053Z" transform="translate(-73.014 -165.968)" fill="#231815"/>
          <path id="Path_11548" data-name="Path 11548" d="M173.976,166.07H172.94c-.547,0-1.244-.007-1.661-.013-.176,0-.3-.007-.339-.007-.287,0-.4.117-.4.417v.443c.007.58.013,1.668.013,2.417v4.462c0,.5,0,1.173-.013,1.765-.007.287-.013.541-.02.736s-.013.352-.013.391c0,.313.111.365.41.365h.241c.306,0,.41-.059.41-.365,0-.052-.007-.215-.013-.443-.007-.189-.013-.43-.02-.7-.013-.58-.013-1.257-.013-1.752v-.645c0-.371.059-.436.41-.436h1.557c2.358,0,3.707-1.309,3.707-3.6C177.213,167.092,176.125,166.07,173.976,166.07Zm-2.443,1.414c0-.371.059-.436.41-.436h1.909c1.59,0,2.365.7,2.365,2.156a2.364,2.364,0,0,1-2.625,2.573h-1.648c-.358,0-.41-.059-.41-.436Z" transform="translate(-80.403 -165.972)" fill="#231815"/>
          <path id="Path_11549" data-name="Path 11549" d="M205.24,166.08H205c-.306,0-.41.059-.41.365,0,.117.013.56.026,1.068l.007.169c.013.547.013,1.16.013,1.655v3.954a2.868,2.868,0,0,1-3.127,2.925,2.715,2.715,0,0,1-2.945-2.912v-3.967c0-.521,0-1.238.013-1.831.007-.3.013-.547.02-.736s.007-.287.007-.326c0-.313-.111-.365-.41-.365h-.241c-.306,0-.41.059-.41.365,0,.039.007.156.007.339s.013.45.02.756c.013.58.013,1.283.013,1.8v4.1a3.558,3.558,0,0,0,3.876,3.791c2.521,0,4.15-1.5,4.15-3.824v-4.065c0-.5,0-1.107.013-1.655.007-.332.013-.619.02-.834s.007-.365.007-.4C205.65,166.132,205.546,166.08,205.24,166.08Z" transform="translate(-89.825 -165.982)" fill="#231815"/>
          <path id="Path_11550" data-name="Path 11550" d="M216.515,170.913c-1.674-.788-2.352-1.212-2.352-2.274,0-1.036.853-1.707,2.169-1.707a3.653,3.653,0,0,1,2.019.586.475.475,0,0,0,.267.124c.124,0,.182-.111.254-.3l.1-.274a.714.714,0,0,0,.065-.274c0-.156-.1-.235-.3-.332a5.356,5.356,0,0,0-2.26-.534c-2.072,0-3.355,1.049-3.355,2.743,0,1.817,1.524,2.521,3,3.205,1.205.554,2.293,1.147,2.293,2.319s-.892,1.928-2.274,1.928a4.344,4.344,0,0,1-2.554-.84.539.539,0,0,0-.267-.137c-.124,0-.2.111-.267.287l-.1.241a.849.849,0,0,0-.078.274c0,.137.1.235.267.345a5.5,5.5,0,0,0,2.905.808c2.059,0,3.387-1.16,3.387-2.951C219.427,172.418,218.163,171.689,216.515,170.913Z" transform="translate(-95.172 -165.93)" fill="#231815"/>
          <path id="Path_11551" data-name="Path 11551" d="M81.709,176.59c-.86-1.016-1.453-1.765-2.085-2.554-.169-.215-.345-.43-.521-.658l-.547-.677c-.033-.039-.052-.072-.072-.1a3.213,3.213,0,0,0,2.612-3.485c0-2.026-1.088-3.049-3.231-3.049H76.83c-.547,0-1.244-.007-1.661-.013-.176,0-.3-.007-.339-.007-.287,0-.4.117-.4.417v.443c.007.58.013,1.668.013,2.417v4.462c0,.5,0,1.173-.013,1.765-.007.287-.013.541-.02.736s-.013.352-.013.391c0,.313.111.365.41.365h.241c.306,0,.41-.059.41-.365,0-.052-.007-.215-.013-.443-.007-.189-.013-.43-.02-.7-.013-.58-.013-1.257-.013-1.752v-.645c0-.371.059-.436.41-.436h1.5a1.943,1.943,0,0,1,.143.163l.86,1.088c.71.9,1.375,1.752,2.039,2.749a.6.6,0,0,0,.632.339h.58c.1,0,.306,0,.306-.156A.716.716,0,0,0,81.709,176.59Zm-6.3-5.257v-3.856c0-.371.059-.436.41-.436h1.909c1.59,0,2.365.7,2.365,2.156a2.364,2.364,0,0,1-2.625,2.573H75.82C75.468,171.77,75.41,171.711,75.41,171.333Z" transform="translate(-46.903 -165.972)" fill="#231815"/>
          <path id="Path_11552" data-name="Path 11552" d="M191.453,176.063c-.124,0-.306.007-.541.02l-.3.013c-.443.013-2.032.013-2.449.013h-2.586c-.358,0-.41-.059-.41-.436v-6.345c0-.586,0-1.14.013-1.765.013-.43.033-1.016.033-1.127,0-.313-.111-.365-.41-.365h-.241c-.3,0-.41.059-.41.365,0,.124.02.749.033,1.107.013.645.013,1.2.013,1.785v4.495c0,.736-.007,1.8-.013,2.384v.443c0,.3.111.417.4.417.059,0,.215,0,.417-.007.4-.007,1-.013,1.492-.013h1.687c.469,0,2.208.007,2.664.013.274,0,.489.007.586.007.3,0,.352-.111.352-.43v-.163C191.752,176.193,191.713,176.063,191.453,176.063Z" transform="translate(-85.158 -165.979)" fill="#231815"/>
        </g>
        <path id="Path_11553" data-name="Path 11553" d="M60.5,166.3a5.348,5.348,0,1,0,5.348,5.348A5.348,5.348,0,0,0,60.5,166.3Zm0,9.609a4.26,4.26,0,1,1,4.26-4.26A4.262,4.262,0,0,1,60.5,175.909Z" transform="translate(-40.193 -154.04)" fill="#231815"/>
      </g>
      <g id="Group_43411" data-name="Group 43411" transform="translate(16.09)">
        <path id="Path_11554" data-name="Path 11554" d="M180.492,43.444h-8.26v-8.26a2.834,2.834,0,0,0-5.667,0v8.26H158.3a2.834,2.834,0,1,0,0,5.667h8.26v8.26a2.834,2.834,0,0,0,5.667,0v-8.26h8.26a2.834,2.834,0,0,0,0-5.667Z" transform="translate(-91.251 -32.346)" fill="url(#linear-gradient)"/>
        <path id="Path_11555" data-name="Path 11555" d="M146.13,89.7H110.256V35.175h0a2.859,2.859,0,0,0-1.244-2.332,2.8,2.8,0,0,0-1.362-.476,2.743,2.743,0,0,0-.612.013,2.8,2.8,0,0,0-1.375.586,2.64,2.64,0,0,0-.593.638,2.861,2.861,0,0,0-.293.56l-18.37,44.18V35.182a2.834,2.834,0,0,0-5.453-1.088l-18.4,44.239V35.182a2.834,2.834,0,1,0-5.667,0V92.541a2.834,2.834,0,0,0,5.453,1.088l18.4-44.239V92.541a2.839,2.839,0,0,0,2.28,2.782,2.7,2.7,0,0,0,.554.052,2.838,2.838,0,0,0,2.619-1.746l18.4-44.239V92.541a2.836,2.836,0,0,0,2.834,2.834H146.13a2.837,2.837,0,0,0,0-5.674Z" transform="translate(-56.89 -32.344)" fill="url(#linear-gradient-2)"/>
      </g>
    </g>
  </g>
</svg>
